<svg xmlns="http://www.w3.org/2000/svg" width="440.64" height="104.27" viewBox="0 0 440.64 104.27" role="img" aria-label="Zekora">
  <title>Zekora</title>
  <path d="M23.05 89.33L0 89.33L52.49 16.35L75.54 16.35L23.05 89.33ZM74.4 102.84L0 102.84L0 89.33L14.51 85.77L74.4 85.77L74.4 102.84ZM60.88 19.91L2.99 19.91L2.99 2.84L75.54 2.84L75.54 16.35L60.88 19.91ZM119.62 104.26L119.62 104.26Q108.81 104.26 100.42 99.64Q92.03 95.02 87.12 86.91Q82.21 78.8 82.21 68.42L82.21 68.42Q82.21 58.17 86.98 50.14Q91.74 42.1 99.99 37.34Q108.24 32.57 118.34 32.57L118.34 32.57Q128.3 32.57 135.91 37.05Q143.52 41.53 147.86 49.28Q152.2 57.04 152.2 66.85L152.2 66.85Q152.2 68.7 151.98 70.62Q151.77 72.54 151.2 74.96L151.2 74.96L93.45 75.1L93.45 61.16L142.53 61.02L134.99 66.85Q134.7 60.73 132.78 56.61Q130.86 52.48 127.23 50.28Q123.61 48.07 118.34 48.07L118.34 48.07Q112.8 48.07 108.67 50.56Q104.55 53.05 102.34 57.53Q100.14 62.01 100.14 68.13L100.14 68.13Q100.14 74.39 102.48 79.01Q104.83 83.64 109.24 86.13Q113.65 88.62 119.48 88.62L119.48 88.62Q124.74 88.62 129.01 86.84Q133.28 85.06 136.41 81.5L136.41 81.5L147.36 92.46Q142.38 98.29 135.2 101.28Q128.02 104.26 119.62 104.26ZM228.29 102.84L205.53 102.84L178.93 67.42L205.39 34.13L226.87 34.13L195.86 71.69L196.57 62.58L228.29 102.84ZM180.35 102.84L161.72 102.84L161.72 0L180.35 0L180.35 102.84ZM267.12 104.26L267.12 104.26Q256.73 104.26 248.41 99.5Q240.09 94.73 235.18 86.55Q230.28 78.37 230.28 68.27L230.28 68.27Q230.28 58.17 235.11 50.14Q239.95 42.1 248.34 37.34Q256.73 32.57 266.97 32.57L266.97 32.57Q277.5 32.57 285.82 37.34Q294.14 42.1 298.98 50.14Q303.82 58.17 303.82 68.27L303.82 68.27Q303.82 78.37 298.98 86.55Q294.14 94.73 285.82 99.5Q277.5 104.26 267.12 104.26ZM266.97 86.91L266.97 86.91Q272.24 86.91 276.29 84.56Q280.35 82.21 282.55 78.02Q284.76 73.82 284.76 68.42L284.76 68.42Q284.76 63.01 282.48 58.89Q280.2 54.76 276.22 52.41Q272.24 50.07 266.97 50.07L266.97 50.07Q261.85 50.07 257.87 52.41Q253.89 54.76 251.61 58.89Q249.34 63.01 249.34 68.42L249.34 68.42Q249.34 73.82 251.61 78.02Q253.89 82.21 257.87 84.56Q261.85 86.91 266.97 86.91ZM332.4 102.84L313.77 102.84L313.77 34.13L332.4 34.13L332.4 102.84ZM332.4 64.86L332.4 64.86L325.15 60.02Q326.43 47.36 332.54 40.04Q338.66 32.71 350.18 32.71L350.18 32.71Q355.16 32.71 359.14 34.35Q363.13 35.98 366.4 39.68L366.4 39.68L354.73 53.05Q353.17 51.35 350.96 50.49Q348.76 49.64 345.91 49.64L345.91 49.64Q339.94 49.64 336.17 53.41Q332.4 57.18 332.4 64.86ZM402.24 104.26L402.24 104.26Q392.85 104.26 385.31 99.57Q377.77 94.87 373.5 86.77Q369.23 78.66 369.23 68.56L369.23 68.56Q369.23 58.32 373.5 50.21Q377.77 42.1 385.31 37.41Q392.85 32.71 402.24 32.71L402.24 32.71Q409.63 32.71 415.46 35.7Q421.3 38.69 424.78 44.02Q428.27 49.35 428.55 56.04L428.55 56.04L428.55 80.79Q428.27 87.62 424.78 92.88Q421.3 98.15 415.46 101.2Q409.63 104.26 402.24 104.26ZM405.65 87.05L405.65 87.05Q413.47 87.05 418.31 81.86Q423.15 76.67 423.15 68.42L423.15 68.42Q423.15 63.01 420.94 58.81Q418.74 54.62 414.82 52.27Q410.91 49.92 405.65 49.92L405.65 49.92Q400.53 49.92 396.62 52.27Q392.7 54.62 390.5 58.81Q388.29 63.01 388.29 68.42L388.29 68.42Q388.29 73.96 390.5 78.16Q392.7 82.36 396.62 84.7Q400.53 87.05 405.65 87.05ZM440.64 102.84L422.15 102.84L422.15 84.35L425.14 67.56L422.15 51.06L422.15 34.13L440.64 34.13L440.64 102.84Z" fill="#FFFFFF"/>
</svg>
